<svg xmlns="http://www.w3.org/2000/svg" viewBox="0 0 28 28"><defs><style>.cls-1{fill:#b0b2c7;}</style></defs><g id="Layer_2" data-name="Layer 2"><g id="Layer_1-2" data-name="Layer 1"><path class="cls-1" d="M14,28A14,14,0,1,1,28,14,14,14,0,0,1,14,28ZM14,2A12,12,0,1,0,26,14,12,12,0,0,0,14,2Z"/><path class="cls-1" d="M15.41,14l4.25-4.24a1,1,0,0,0-1.42-1.42L14,12.59,9.76,8.34A1,1,0,0,0,8.34,9.76L12.59,14,8.34,18.24a1,1,0,0,0,0,1.42,1,1,0,0,0,1.41,0l0,0L14,15.41l4.24,4.25a1,1,0,0,0,1.44-1.39l0,0Z"/></g></g></svg>